<svg width="79" height="65" viewBox="0 0 79 65" fill="none" xmlns="http://www.w3.org/2000/svg">
<path d="M76.7036 27.0852C76.3084 25.8861 75.934 24.8731 75.6428 23.8188C75.4555 23.1573 75.0811 22.9712 74.4363 22.9919C72.3977 23.0746 70.3383 22.9712 68.3205 23.2193C66.3028 23.4674 64.9299 22.8678 64.0146 21.0693C63.7442 20.5318 63.2865 20.0563 62.8913 19.5808C62.3504 18.9399 62.2464 18.299 62.5585 17.4928C63.4529 15.2187 64.2226 12.9033 65.1171 10.6086C65.4083 9.86437 65.2627 9.40956 64.597 8.97542C63.3697 8.14849 62.2256 7.25955 61.0399 6.43262C59.3758 5.29559 59.8334 5.2129 58.1693 6.45329C56.3387 7.81772 54.5082 9.16148 52.6984 10.5673C52.116 11.0221 51.5543 11.0841 50.8679 10.836C49.7654 10.4225 48.6629 10.0091 47.5188 9.76101C46.5411 9.5336 46.0835 8.97542 45.8339 8.0658C45.1682 5.7504 44.4193 3.45567 43.7537 1.14027C43.5665 0.478726 43.2336 0.147955 42.5472 0.127281C40.8414 0.106608 39.1565 0.106608 37.4716 0.0239153C36.5355 -0.0174311 36.0154 0.313341 35.745 1.24364C35.121 3.49702 34.3721 5.70905 33.7272 7.96244C33.4776 8.85138 33.0616 9.36821 32.1047 9.57495C30.8982 9.8437 29.6917 10.2158 28.5476 10.6706C27.7571 10.9807 27.1747 10.836 26.5506 10.3605C24.5121 8.81004 22.4527 7.30089 20.4349 5.72973C19.8941 5.31626 19.4781 5.31626 18.958 5.70905C17.5019 6.76339 16.025 7.79705 14.548 8.78936C13.924 9.20283 13.9032 9.63697 14.1528 10.2778C15.0681 12.6553 15.9418 15.0534 16.753 17.4514C16.8986 17.8856 16.753 18.5471 16.5034 18.9399C15.7545 20.0976 14.8393 21.152 14.0696 22.289C13.612 22.9505 13.0711 23.2193 12.2598 23.1779C9.70124 23.0746 7.14262 23.0125 4.5632 22.9919C4.20957 22.9919 3.64793 23.1573 3.54392 23.4053C3.06548 24.563 2.71185 25.7621 2.25421 27.0852C2.81586 27.0852 3.19029 27.0852 3.58552 27.0852C7.39224 27.0852 11.2198 27.0025 15.0265 27.1265C16.5242 27.1679 17.5227 26.8784 18.0219 25.39C18.1883 24.9145 18.5628 24.501 18.8332 24.0876C25.1153 14.4538 37.9916 10.5673 48.6213 15.0327C54.1338 17.3481 58.2733 21.1106 61.1231 26.3409C61.2896 26.6717 61.7472 27.0645 62.0592 27.0645C66.8644 27.1058 71.6904 27.0852 76.7036 27.0852Z" fill="white"/>
<path d="M76.7036 27.0853C71.6696 27.0853 66.8644 27.106 62.0384 27.044C61.7264 27.044 61.2687 26.6512 61.1023 26.3204C58.2525 21.0901 54.1129 17.3276 48.6005 15.0122C37.9916 10.5674 25.1153 14.454 18.7916 24.067C18.5003 24.5012 18.1259 24.894 17.9803 25.3695C17.4811 26.8579 16.4826 27.168 14.9849 27.106C11.1781 26.982 7.37142 27.0647 3.5439 27.0647C3.16947 27.0647 2.79503 27.0647 2.21259 27.0647C2.64942 25.7622 3.00305 24.5425 3.50229 23.3848C3.6063 23.1367 4.16795 22.9714 4.52158 22.9714C7.08019 22.992 9.65961 23.0541 12.2182 23.1574C13.0503 23.1988 13.5703 22.93 14.028 22.2685C14.8184 21.1314 15.7129 20.0771 16.4618 18.9194C16.7114 18.5266 16.857 17.8651 16.7114 17.4309C15.9001 15.0122 15.0057 12.6347 14.1112 10.2573C13.8616 9.61646 13.9032 9.18232 14.5064 8.76886C16.0041 7.77654 17.4603 6.72221 18.9164 5.68854C19.4364 5.31643 19.8525 5.29575 20.3933 5.70922C22.4111 7.28038 24.4913 8.78953 26.509 10.34C27.1331 10.8155 27.7155 10.9809 28.506 10.6501C29.6501 10.1953 30.8566 9.82319 32.0631 9.55444C33.02 9.3477 33.436 8.83087 33.6856 7.94193C34.3097 5.68854 35.0585 3.47651 35.7034 1.22313C35.9738 0.292833 36.4939 -0.0379389 37.4299 0.0034075C39.1149 0.0861004 40.8206 0.0861004 42.5056 0.106774C43.2128 0.106774 43.5248 0.437545 43.7121 1.11976C44.3777 3.43516 45.1266 5.72989 45.7922 8.04529C46.0419 8.95491 46.4995 9.51309 47.4772 9.7405C48.6213 10.0092 49.7238 10.402 50.8263 10.8155C51.5127 11.0843 52.0744 11.0016 52.6568 10.5468C54.4666 9.16165 56.2971 7.79721 58.1277 6.43278C59.7918 5.19239 59.355 5.27508 60.9983 6.41211C62.184 7.23904 63.3489 8.12799 64.5554 8.91357C65.2211 9.34771 65.3667 9.80252 65.0754 10.5468C64.2018 12.8208 63.4113 15.1362 62.5168 17.4309C62.2048 18.2372 62.3088 18.8781 62.8497 19.5189C63.2449 19.9944 63.6817 20.4699 63.973 21.0074C64.8882 22.806 66.2611 23.4055 68.2789 23.1574C70.2967 22.9093 72.3561 23.0127 74.3946 22.93C75.0395 22.9093 75.4139 23.1161 75.6011 23.7569C75.9548 24.8733 76.3292 25.8863 76.7036 27.0853Z" fill="#FF3811"/>
<path d="M55.5691 34.0729C53.1145 31.6541 50.639 29.2147 48.1636 26.7546C47.7268 26.3204 47.4564 26.6098 47.1444 26.9199C45.9795 28.0983 44.8146 29.2767 43.6289 30.4137C42.88 31.1373 42.0687 31.8402 41.2783 32.5431C41.3407 32.6464 41.4031 32.7291 41.4655 32.8325C43.7745 32.3777 45.7922 32.8532 47.4564 34.4863C49.0997 36.1195 49.5366 38.1662 49.1205 40.3782C51.2839 38.2695 53.3849 36.2022 55.5691 34.0729Z" fill="white"/>
<path d="M37.638 32.7085C37.326 32.357 37.1803 32.1296 36.9931 31.9435C35.329 30.2897 33.6233 28.6772 32.0007 26.982C31.4183 26.3824 31.0646 26.4031 30.503 26.982C28.3396 29.1733 26.1762 31.3233 23.9504 33.4527C23.3888 33.9902 23.5136 34.321 23.992 34.7964C25.7394 36.5123 27.4659 38.2489 29.2133 39.9648C29.3589 40.1095 29.5669 40.1922 29.8165 40.3575C29.0885 35.396 32.5832 31.9849 37.638 32.7085Z" fill="white"/>
<path d="M29.5461 24.6045C26.9043 27.2713 24.3457 29.8762 21.8079 32.4396C21.9951 32.6877 22.2447 33.0392 22.4735 33.3286C25.1569 30.6617 27.7364 28.1189 30.4822 25.4107C30.191 25.1627 29.8581 24.8732 29.5461 24.6045Z" fill="white"/>
<path d="M59.0638 30.6617C59.0014 30.5584 58.9598 30.4343 58.8766 30.331C56.526 27.9949 54.1962 25.6795 51.8456 23.3434C51.4504 22.9506 51.1591 22.9299 50.7223 23.3434C50.2647 23.7982 50.3479 24.1083 50.7639 24.5218C52.8649 26.5684 54.9243 28.6358 57.0044 30.7031C57.3373 31.0339 57.6909 31.3439 58.1693 31.7988C58.4814 31.406 58.731 31.0959 59.0638 30.6617Z" fill="white"/>
<path d="M57.3997 32.3154C54.9866 29.9173 52.6153 27.5813 50.2439 25.2038C49.8486 24.811 49.5158 24.5009 48.9749 25.0798C48.4549 25.638 48.7461 25.9687 49.1622 26.3615C51.2839 28.4495 53.3849 30.5375 55.4859 32.6255C56.422 33.5765 56.4428 33.5765 57.3997 32.3154Z" fill="white"/>
<path d="M28.6725 23.8395C27.7364 22.7025 27.7572 22.7025 26.7587 23.6741C24.7201 25.7001 22.6816 27.7054 20.6638 29.7314C19.6861 30.703 19.7069 30.8271 20.8718 31.4886C23.472 28.9458 26.0514 26.403 28.6725 23.8395Z" fill="white"/>
<path d="M55.5691 34.0727C53.3849 36.2227 51.2839 38.2694 49.1205 40.3987C49.5366 38.1867 49.0997 36.1607 47.4564 34.5068C45.7922 32.853 43.7537 32.3982 41.4655 32.853C41.4031 32.7496 41.3407 32.6669 41.2783 32.5636C42.0687 31.8607 42.8592 31.1785 43.6289 30.4342C44.8146 29.2765 45.9795 28.1188 47.1444 26.9404C47.4564 26.6303 47.7268 26.3409 48.1636 26.7751C50.639 29.1938 53.1145 31.6333 55.5691 34.0727ZM49.8902 30.7236C49.4533 31.3025 48.9333 31.6953 48.9749 31.9847C49.0373 32.3362 49.5782 32.6256 49.911 32.9357C50.2022 32.6256 50.7015 32.3155 50.7223 31.9847C50.7639 31.6539 50.3062 31.2818 49.8902 30.7236Z" fill="white"/>
<path d="M37.638 32.7083C32.5624 31.9847 29.0885 35.3958 29.8165 40.378C29.5669 40.2127 29.3589 40.13 29.2133 39.9853C27.4659 38.2694 25.7394 36.5328 23.992 34.817C23.5136 34.3415 23.3888 34.0107 23.9504 33.4732C26.1554 31.3438 28.3396 29.1732 30.503 27.0025C31.0646 26.4236 31.4183 26.4029 32.0007 27.0025C33.6233 28.6977 35.329 30.3102 36.9931 31.964C37.1803 32.1294 37.3468 32.3568 37.638 32.7083ZM30.3782 32.0467C29.7957 31.5713 29.4213 31.0544 29.1509 31.0958C28.7764 31.1578 28.4644 31.6746 28.1316 31.9847C28.4436 32.2948 28.714 32.791 29.0677 32.853C29.3589 32.8943 29.7541 32.4395 30.3782 32.0467Z" fill="white"/>
<path d="M29.5461 24.6045C29.8581 24.8732 30.191 25.142 30.4822 25.4107C27.7572 28.1189 25.1777 30.6617 22.4735 33.3286C22.2447 33.0185 21.9743 32.6671 21.8079 32.4396C24.3457 29.8762 26.9251 27.2713 29.5461 24.6045Z" fill="white"/>
<path d="M59.0638 30.6616C58.7309 31.0957 58.4813 31.4058 58.1693 31.8193C57.6909 31.3645 57.3372 31.0544 57.0044 30.7236C54.9242 28.6563 52.8648 26.5889 50.7639 24.5423C50.327 24.1288 50.2438 23.8187 50.7223 23.3639C51.1383 22.9505 51.4503 22.9711 51.8456 23.3639C54.1754 25.7 56.526 28.0154 58.8765 30.3515C58.9598 30.4135 59.0014 30.5582 59.0638 30.6616Z" fill="white"/>
<path d="M57.3997 32.3154C56.4636 33.5765 56.4428 33.5765 55.4859 32.6255C53.3849 30.5375 51.2839 28.4289 49.1622 26.3615C48.7461 25.9687 48.4549 25.638 48.9749 25.0798C49.5158 24.5009 49.8486 24.811 50.2439 25.2038C52.6153 27.5813 54.9866 29.9173 57.3997 32.3154Z" fill="white"/>
<path d="M28.6725 23.8396C26.0514 26.4237 23.472 28.9458 20.8718 31.5093C19.7069 30.8478 19.6861 30.7237 20.6638 29.7521C22.7024 27.7261 24.7409 25.7208 26.7587 23.6948C27.7572 22.7025 27.7572 22.7025 28.6725 23.8396Z" fill="white"/>
<path d="M49.8902 30.7236C50.2855 31.3025 50.7431 31.6539 50.7223 31.9847C50.7015 32.3155 50.2022 32.6256 49.911 32.9357C49.5782 32.6256 49.0373 32.3568 48.9749 31.9847C48.9333 31.6953 49.4534 31.3025 49.8902 30.7236Z" fill="white"/>
<path d="M30.3782 32.0469C29.7541 32.4397 29.3797 32.8945 29.0469 32.8325C28.6932 32.7912 28.4228 32.2743 28.1108 31.9642C28.4436 31.6541 28.7556 31.1373 29.1301 31.0753C29.4213 31.0546 29.7957 31.5921 30.3782 32.0469Z" fill="white"/>
<path d="M5.92918 51.2634C5.50183 51.2634 5.1225 51.3474 4.79119 51.5155C4.46468 51.6787 4.18858 51.9164 3.9629 52.2285C3.74203 52.5406 3.57397 52.9175 3.45873 53.3593C3.34349 53.8011 3.28587 54.298 3.28587 54.8502C3.28587 55.5945 3.3771 56.2307 3.55956 56.7589C3.74683 57.2823 4.03493 57.6832 4.42386 57.9617C4.8128 58.2354 5.31457 58.3722 5.92918 58.3722C6.35653 58.3722 6.78388 58.3242 7.21123 58.2282C7.64338 58.1321 8.11154 57.9953 8.61571 57.8176V59.6903C8.14995 59.8824 7.69139 60.0192 7.24004 60.1008C6.78868 60.1873 6.2821 60.2305 5.72031 60.2305C4.63513 60.2305 3.74203 60.0072 3.04098 59.5606C2.34474 59.1093 1.82856 58.4803 1.49245 57.6736C1.15633 56.8621 0.988273 55.9162 0.988273 54.8358C0.988273 54.0387 1.09631 53.3089 1.31238 52.6463C1.52846 51.9836 1.84537 51.4098 2.26311 50.9249C2.68086 50.4399 3.19704 50.0654 3.81165 49.8013C4.42626 49.5372 5.13211 49.4051 5.92918 49.4051C6.45256 49.4051 6.97594 49.4724 7.49933 49.6068C8.02751 49.7364 8.53168 49.9165 9.01185 50.147L8.2916 51.962C7.89786 51.7747 7.50173 51.6115 7.10319 51.4722C6.70465 51.333 6.31332 51.2634 5.92918 51.2634ZM13.9888 51.8684C15.0691 51.8684 15.8974 52.1037 16.4736 52.5742C17.0498 53.0448 17.3379 53.7602 17.3379 54.7206V60.0864H15.8038L15.3789 58.9916H15.3212C15.0908 59.2797 14.8555 59.515 14.6154 59.6975C14.3753 59.88 14.0992 60.0144 13.7871 60.1008C13.475 60.1873 13.0957 60.2305 12.6491 60.2305C12.1737 60.2305 11.7464 60.1392 11.3671 59.9568C10.9925 59.7743 10.6972 59.4958 10.4812 59.1213C10.2651 58.742 10.157 58.2618 10.157 57.6808C10.157 56.8261 10.4571 56.1971 11.0574 55.7937C11.6576 55.3856 12.5579 55.1599 13.7583 55.1167L15.1556 55.0735V54.7206C15.1556 54.298 15.0451 53.9883 14.8243 53.7914C14.6034 53.5946 14.2961 53.4961 13.9023 53.4961C13.5134 53.4961 13.1317 53.5514 12.7571 53.6618C12.3826 53.7722 12.0081 53.9115 11.6336 54.0795L10.9061 52.5958C11.3335 52.3702 11.8112 52.1925 12.3394 52.0628C12.8724 51.9332 13.4222 51.8684 13.9888 51.8684ZM15.1556 56.3555L14.3057 56.3843C13.595 56.4036 13.1005 56.5308 12.822 56.7661C12.5483 57.0014 12.4114 57.3111 12.4114 57.6952C12.4114 58.0313 12.5099 58.2714 12.7067 58.4154C12.9036 58.5547 13.1605 58.6243 13.4774 58.6243C13.948 58.6243 14.3441 58.4851 14.6658 58.2066C14.9923 57.9281 15.1556 57.5319 15.1556 57.0182V56.3555ZM24.1011 51.8828C24.2115 51.8828 24.3388 51.89 24.4828 51.9044C24.6317 51.914 24.7517 51.9284 24.8429 51.9476L24.6773 54.0075C24.6052 53.9835 24.502 53.9667 24.3676 53.9571C24.2379 53.9427 24.1251 53.9355 24.029 53.9355C23.7457 53.9355 23.4697 53.9715 23.2008 54.0435C22.9367 54.1156 22.699 54.2332 22.4877 54.3965C22.2764 54.5549 22.1084 54.7662 21.9835 55.0303C21.8635 55.2896 21.8035 55.6089 21.8035 55.9882V60.0864H19.6067V52.034H21.2705L21.5946 53.3881H21.7026C21.8611 53.1144 22.058 52.8647 22.2932 52.639C22.5333 52.4086 22.8046 52.2261 23.1071 52.0917C23.4144 51.9524 23.7457 51.8828 24.1011 51.8828ZM39.0462 54.7206C39.0462 55.9066 38.8182 56.8981 38.362 57.6952C37.9107 58.4875 37.2552 59.0853 36.3957 59.4886C35.5362 59.8872 34.5015 60.0864 33.2915 60.0864H30.3096V49.5564H33.6156C34.7199 49.5564 35.6779 49.7532 36.4894 50.147C37.3008 50.5359 37.9299 51.1145 38.3764 51.8828C38.823 52.6463 39.0462 53.5922 39.0462 54.7206ZM36.727 54.7782C36.727 54.0003 36.6118 53.3617 36.3813 52.8623C36.1556 52.3582 35.8195 51.986 35.373 51.7459C34.9312 51.5059 34.3838 51.3858 33.7308 51.3858H32.5424V58.2426H33.5003C34.5903 58.2426 35.3994 57.9521 35.9276 57.3711C36.4605 56.7901 36.727 55.9258 36.727 54.7782ZM48.3735 56.0458C48.3735 56.7181 48.2822 57.3135 48.0998 57.832C47.9221 58.3506 47.6604 58.79 47.3147 59.1501C46.9738 59.5054 46.5608 59.7743 46.0759 59.9568C45.5957 60.1392 45.0531 60.2305 44.4481 60.2305C43.8815 60.2305 43.3605 60.1392 42.8852 59.9568C42.4146 59.7743 42.0041 59.5054 41.6535 59.1501C41.3078 58.79 41.0389 58.3506 40.8469 57.832C40.6596 57.3135 40.566 56.7181 40.566 56.0458C40.566 55.1527 40.7244 54.3965 41.0413 53.777C41.3582 53.1576 41.8096 52.6871 42.3954 52.3654C42.9812 52.0436 43.6798 51.8828 44.4913 51.8828C45.2452 51.8828 45.9126 52.0436 46.4936 52.3654C47.0794 52.6871 47.538 53.1576 47.8693 53.777C48.2054 54.3965 48.3735 55.1527 48.3735 56.0458ZM42.8059 56.0458C42.8059 56.574 42.8636 57.0182 42.9788 57.3783C43.094 57.7384 43.2741 58.0097 43.519 58.1922C43.7639 58.3746 44.0832 58.4659 44.4769 58.4659C44.8659 58.4659 45.1804 58.3746 45.4204 58.1922C45.6653 58.0097 45.843 57.7384 45.9534 57.3783C46.0687 57.0182 46.1263 56.574 46.1263 56.0458C46.1263 55.5128 46.0687 55.0711 45.9534 54.7206C45.843 54.3652 45.6653 54.0988 45.4204 53.9211C45.1756 53.7434 44.8563 53.6546 44.4625 53.6546C43.8815 53.6546 43.459 53.8539 43.1949 54.2524C42.9356 54.6509 42.8059 55.2488 42.8059 56.0458ZM53.4584 60.2305C52.6614 60.2305 51.9819 60.0864 51.4201 59.7983C50.8583 59.5054 50.431 59.0541 50.1381 58.4443C49.8452 57.8344 49.6987 57.0542 49.6987 56.1034C49.6987 55.1191 49.8644 54.3172 50.1957 53.6978C50.5318 53.0736 50.9952 52.615 51.5858 52.3221C52.1812 52.0292 52.8702 51.8828 53.6529 51.8828C54.2099 51.8828 54.6901 51.938 55.0934 52.0484C55.5015 52.1541 55.8569 52.2813 56.1594 52.4302L55.5111 54.13C55.1654 53.9907 54.8437 53.8779 54.546 53.7914C54.2483 53.7002 53.9506 53.6546 53.6529 53.6546C53.2688 53.6546 52.9495 53.7458 52.695 53.9283C52.4405 54.106 52.2508 54.3748 52.126 54.735C52.0011 55.0951 51.9387 55.5465 51.9387 56.089C51.9387 56.622 52.0059 57.0638 52.1404 57.4143C52.2748 57.7648 52.4693 58.0265 52.7238 58.1994C52.9783 58.3674 53.288 58.4515 53.6529 58.4515C54.1091 58.4515 54.5148 58.3914 54.8701 58.2714C55.2254 58.1466 55.5712 57.9737 55.9073 57.7528V59.6327C55.5712 59.8439 55.2182 59.9952 54.8485 60.0864C54.4836 60.1825 54.0202 60.2305 53.4584 60.2305ZM61.1723 58.4803C61.4124 58.4803 61.6453 58.4563 61.8709 58.4082C62.1014 58.3602 62.3295 58.3002 62.5552 58.2282V59.8631C62.3199 59.9688 62.027 60.0552 61.6765 60.1224C61.3308 60.1945 60.9514 60.2305 60.5385 60.2305C60.0583 60.2305 59.6262 60.1536 59.242 60C58.8627 59.8415 58.5626 59.5702 58.3417 59.1861C58.1256 58.7972 58.0176 58.257 58.0176 57.5656V53.6834H56.966V52.7543L58.1761 52.0196L58.8099 50.3198H60.2144V52.034H62.4688V53.6834H60.2144V57.5656C60.2144 57.8729 60.3008 58.1033 60.4737 58.257C60.6513 58.4058 60.8842 58.4803 61.1723 58.4803ZM71.5079 56.0458C71.5079 56.7181 71.4166 57.3135 71.2342 57.832C71.0565 58.3506 70.7948 58.79 70.4491 59.1501C70.1082 59.5054 69.6953 59.7743 69.2103 59.9568C68.7301 60.1392 68.1875 60.2305 67.5825 60.2305C67.0159 60.2305 66.4949 60.1392 66.0196 59.9568C65.549 59.7743 65.1385 59.5054 64.788 59.1501C64.4422 58.79 64.1733 58.3506 63.9813 57.832C63.794 57.3135 63.7004 56.7181 63.7004 56.0458C63.7004 55.1527 63.8588 54.3965 64.1757 53.777C64.4926 53.1576 64.944 52.6871 65.5298 52.3654C66.1156 52.0436 66.8143 51.8828 67.6257 51.8828C68.3796 51.8828 69.047 52.0436 69.628 52.3654C70.2138 52.6871 70.6724 53.1576 71.0037 53.777C71.3398 54.3965 71.5079 55.1527 71.5079 56.0458ZM65.9404 56.0458C65.9404 56.574 65.998 57.0182 66.1132 57.3783C66.2285 57.7384 66.4085 58.0097 66.6534 58.1922C66.8983 58.3746 67.2176 58.4659 67.6113 58.4659C68.0003 58.4659 68.3148 58.3746 68.5549 58.1922C68.7997 58.0097 68.9774 57.7384 69.0878 57.3783C69.2031 57.0182 69.2607 56.574 69.2607 56.0458C69.2607 55.5128 69.2031 55.0711 69.0878 54.7206C68.9774 54.3652 68.7997 54.0988 68.5549 53.9211C68.31 53.7434 67.9907 53.6546 67.5969 53.6546C67.0159 53.6546 66.5934 53.8539 66.3293 54.2524C66.07 54.6509 65.9404 55.2488 65.9404 56.0458ZM77.8173 51.8828C77.9277 51.8828 78.0549 51.89 78.199 51.9044C78.3478 51.914 78.4679 51.9284 78.5591 51.9476L78.3935 54.0075C78.3214 53.9835 78.2182 53.9667 78.0837 53.9571C77.9541 53.9427 77.8413 53.9355 77.7452 53.9355C77.4619 53.9355 77.1858 53.9715 76.9169 54.0435C76.6529 54.1156 76.4152 54.2332 76.2039 54.3965C75.9926 54.5549 75.8246 54.7662 75.6997 55.0303C75.5797 55.2896 75.5197 55.6089 75.5197 55.9882V60.0864H73.3229V52.034H74.9867L75.3108 53.3881H75.4188C75.5773 53.1144 75.7741 52.8647 76.0094 52.639C76.2495 52.4086 76.5208 52.2261 76.8233 52.0917C77.1306 51.9524 77.4619 51.8828 77.8173 51.8828Z" fill="white"/>
</svg>
